# xmcd CD database file
#
# Track frame offsets:
#	150
#	16207
#	38933
#	58030
#	80455
#	94930
#	114390
#	131530
#	150838
#	172038
#	190693
#
# Disc length: 2708 seconds
#
# Revision: 0
# Processed by: cddbd v1.4PL0 Copyright (c) Steve Scherf et al.
# Submitted via: CDex 1.40Release
#
DISCID=810a920b
DTITLE=Deborah Coleman - Takin' A Stand
DYEAR=1994
DGENRE=Blues
TTITLE0=Evil Gal's Daughter
TTITLE1=Missin' You
TTITLE2=Don't Talk About Love (Dues with Skeeter Brandon)
TTITLE3=Takin' A Stand
TTITLE4=I Believe
TTITLE5=Moanin' The Blues
TTITLE6=I Cry
TTITLE7=What Should I Do?
TTITLE8=Can't Leave The Blues
TTITLE9=Them Changes
TTITLE10=Changes Revisited
EXTD=YEAR: 1994 ID3G: 0
EXTT0=
EXTT1=
EXTT2=
EXTT3=
EXTT4=
EXTT5=
EXTT6=
EXTT7=
EXTT8=
EXTT9=
EXTT10=
PLAYORDER=
